<?xml version="1.0" encoding="UTF-8" standalone="no"?>
<!-- Created with matplotlib (http://matplotlib.org/) -->

<svg
   xmlns:dc="http://purl.org/dc/elements/1.1/"
   xmlns:cc="http://creativecommons.org/ns#"
   xmlns:rdf="http://www.w3.org/1999/02/22-rdf-syntax-ns#"
   xmlns:svg="http://www.w3.org/2000/svg"
   xmlns="http://www.w3.org/2000/svg"
   xmlns:sodipodi="http://sodipodi.sourceforge.net/DTD/sodipodi-0.dtd"
   xmlns:inkscape="http://www.inkscape.org/namespaces/inkscape"
   height="174.24762pt"
   version="1.1"
   viewBox="0 0 233.95338 174.24762"
   width="233.95337pt"
   id="svg336"
   sodipodi:docname="SomeHarmonics.svg"
   inkscape:version="0.92.3 (2405546, 2018-03-11)"
   inkscape:export-filename="C:\Users\Vassili Savinov\Dropbox\DARPA_Work\ToroHarm\ToroidalHarmonics\SomeHarmonics.png"
   inkscape:export-xdpi="300"
   inkscape:export-ydpi="300">
  <metadata
     id="metadata340">
    <rdf:RDF>
      <cc:Work
         rdf:about="">
        <dc:format>image/svg+xml</dc:format>
        <dc:type
           rdf:resource="http://purl.org/dc/dcmitype/StillImage" />
        <dc:title></dc:title>
      </cc:Work>
    </rdf:RDF>
  </metadata>
  <sodipodi:namedview
     pagecolor="#080831"
     bordercolor="#666666"
     borderopacity="1"
     objecttolerance="10"
     gridtolerance="10"
     guidetolerance="10"
     inkscape:pageopacity="0"
     inkscape:pageshadow="2"
     inkscape:window-width="1920"
     inkscape:window-height="1017"
     id="namedview338"
     showgrid="false"
     inkscape:snap-bbox="true"
     inkscape:bbox-paths="true"
     inkscape:bbox-nodes="true"
     inkscape:snap-bbox-midpoints="true"
     inkscape:snap-bbox-edge-midpoints="true"
     inkscape:object-paths="true"
     inkscape:snap-intersection-paths="true"
     inkscape:snap-smooth-nodes="true"
     inkscape:snap-midpoints="true"
     inkscape:snap-object-midpoints="true"
     inkscape:snap-center="true"
     inkscape:snap-text-baseline="true"
     showguides="true"
     inkscape:guide-bbox="true"
     inkscape:zoom="1.307411"
     inkscape:cx="125.05355"
     inkscape:cy="26.637034"
     inkscape:window-x="1912"
     inkscape:window-y="-8"
     inkscape:window-maximized="1"
     inkscape:current-layer="svg336"
     fit-margin-top="1"
     fit-margin-left="1"
     fit-margin-bottom="1"
     fit-margin-right="1" />
  <defs
     id="defs4"
     style="stroke-linecap:butt;stroke-linejoin:round">
    <style
       type="text/css"
       id="style2">
*{stroke-linecap:butt;stroke-linejoin:round;}
  </style>
    <defs
       id="defs164">
      <path
         d="M 19.671875,64.796875 V 37.40625 h 12.40625 q 6.890625,0 10.640625,3.5625 3.765625,3.5625 3.765625,10.15625 0,6.546875 -3.765625,10.109375 -3.75,3.5625 -10.640625,3.5625 z M 9.8125,72.90625 h 22.265625 q 12.265625,0 18.53125,-5.546875 6.28125,-5.546875 6.28125,-16.234375 0,-10.796875 -6.28125,-16.3125 -6.265625,-5.515625 -18.53125,-5.515625 H 19.671875 V 0 H 9.8125 Z"
         id="DejaVuSans-50"
         inkscape:connector-curvature="0"
         style="stroke-linecap:butt;stroke-linejoin:round" />
      <path
         d="M 11.71875,12.40625 H 22.015625 V 4 l -8,-15.625 H 7.71875 l 4,15.625 z"
         id="DejaVuSans-2c"
         inkscape:connector-curvature="0"
         style="stroke-linecap:butt;stroke-linejoin:round" />
      <path
         d="m 39.40625,66.21875 q -10.75,0 -17.078125,-8.015625 -6.3125,-8 -6.3125,-21.828125 0,-13.765625 6.3125,-21.78125 6.328125,-8 17.078125,-8 10.734375,0 17.015625,8 6.28125,8.015625 6.28125,21.78125 0,13.828125 -6.28125,21.828125 -6.28125,8.015625 -17.015625,8.015625 z m 13.8125,-64.90625 13,-14.203125 H 54.296875 L 43.5,-1.21875 q -1.609375,-0.09375 -2.46875,-0.140625 -0.84375,-0.0625 -1.625,-0.0625 -15.375,0 -24.59375,10.28125 -9.203125,10.28125 -9.203125,27.515625 0,17.28125 9.203125,27.5625 9.21875,10.28125 24.59375,10.28125 15.328125,0 24.5,-10.28125 9.1875,-10.28125 9.1875,-27.5625 0,-12.6875 -5.109375,-21.734375 Q 62.890625,5.609375 53.21875,1.3125 Z"
         id="DejaVuSans-51"
         inkscape:connector-curvature="0"
         style="stroke-linecap:butt;stroke-linejoin:round" />
      <path
         id="DejaVuSans-20"
         d=""
         inkscape:connector-curvature="0"
         style="stroke-linecap:butt;stroke-linejoin:round" />
      <path
         d="M 2.984375,54.6875 H 12.5 L 29.59375,8.796875 46.6875,54.6875 h 9.515625 L 35.6875,0 H 23.484375 Z"
         id="DejaVuSans-76"
         inkscape:connector-curvature="0"
         style="stroke-linecap:butt;stroke-linejoin:round" />
      <path
         d="m 34.28125,27.484375 q -10.890625,0 -15.09375,-2.484375 -4.203125,-2.484375 -4.203125,-8.5 0,-4.78125 3.15625,-7.59375 3.15625,-2.796875 8.5625,-2.796875 7.484375,0 12,5.296875 4.515625,5.296875 4.515625,14.078125 v 2 z m 17.921875,3.71875 V 0 H 43.21875 v 8.296875 q -3.078125,-4.96875 -7.671875,-7.34375 -4.59375,-2.375 -11.234375,-2.375 -8.390625,0 -13.359375,4.71875 Q 6,8.015625 6,15.921875 q 0,9.21875 6.171875,13.90625 6.1875,4.6875 18.4375,4.6875 H 43.21875 v 0.890625 q 0,6.203125 -4.078125,9.59375 -4.078125,3.390625 -11.453125,3.390625 -4.6875,0 -9.140625,-1.125 -4.4375,-1.125 -8.53125,-3.375 v 8.3125 q 4.921875,1.90625 9.5625,2.84375 Q 24.21875,56 28.609375,56 q 11.875,0 17.734375,-6.15625 5.859375,-6.140625 5.859375,-18.640625 z"
         id="DejaVuSans-61"
         inkscape:connector-curvature="0"
         style="stroke-linecap:butt;stroke-linejoin:round" />
      <path
         d="M 9.421875,75.984375 H 18.40625 V 0 H 9.421875 Z"
         id="DejaVuSans-6c"
         inkscape:connector-curvature="0"
         style="stroke-linecap:butt;stroke-linejoin:round" />
      <path
         d="M 8.5,21.578125 V 54.6875 h 8.984375 V 21.921875 q 0,-7.765625 3.015625,-11.65625 3.03125,-3.875 9.09375,-3.875 7.265625,0 11.484375,4.640625 4.234375,4.640625 4.234375,12.65625 v 31 h 8.984375 V 0 H 45.3125 V 8.40625 Q 42.046875,3.421875 37.71875,1 33.40625,-1.421875 27.6875,-1.421875 18.265625,-1.421875 13.375,4.4375 8.5,10.296875 8.5,21.578125 Z M 31.109375,56 Z"
         id="DejaVuSans-75"
         inkscape:connector-curvature="0"
         style="stroke-linecap:butt;stroke-linejoin:round" />
      <path
         d="m 56.203125,29.59375 v -4.390625 h -41.3125 q 0.59375,-9.28125 5.59375,-14.140625 5,-4.859375 13.9375,-4.859375 5.171875,0 10.03125,1.265625 4.859375,1.265625 9.65625,3.8125 v -8.5 q -4.84375,-2.046875 -9.921875,-3.125 -5.078125,-1.078125 -10.296875,-1.078125 -13.09375,0 -20.734375,7.609375 -7.640625,7.625 -7.640625,20.625 0,13.421875 7.25,21.296875 Q 20.015625,56 32.328125,56 q 11.03125,0 17.453125,-7.109375 6.421875,-7.09375 6.421875,-19.296875 z m -8.984375,2.640625 q -0.09375,7.359375 -4.125,11.75 -4.03125,4.40625 -10.671875,4.40625 -7.515625,0 -12.03125,-4.25 -4.515625,-4.25 -5.203125,-11.96875 z"
         id="DejaVuSans-65"
         inkscape:connector-curvature="0"
         style="stroke-linecap:butt;stroke-linejoin:round" />
    </defs>
    <defs
       id="defs89">
      <path
         d="M 5.515625,54.6875 H 48.1875 V 46.484375 L 14.40625,7.171875 H 48.1875 V 0 H 4.296875 v 8.203125 l 33.796875,39.3125 H 5.515625 Z"
         id="DejaVuSans-7a"
         inkscape:connector-curvature="0"
         style="stroke-linecap:butt;stroke-linejoin:round" />
    </defs>
  </defs>
  <g
     id="patch_3"
     style="stroke:#ffffff;stroke-linecap:butt;stroke-linejoin:round;stroke-opacity:1"
     transform="translate(-56.224919,-39.92428)" />
  <g
     id="patch_4"
     style="stroke-linecap:butt;stroke-linejoin:round"
     transform="translate(-56.224919,-39.92428)" />
  <g
     id="patch_5"
     style="stroke:#ffffff;stroke-linecap:butt;stroke-linejoin:round;stroke-opacity:1"
     transform="translate(-56.224919,-39.92428)" />
  <g
     id="patch_6"
     style="stroke-linecap:butt;stroke-linejoin:round"
     transform="translate(-56.224919,-39.92428)" />
  <defs
     id="defs334">
    <clipPath
       id="p60b905f27a"
       style="stroke-linecap:butt;stroke-linejoin:round">
      <rect
         height="265.0032"
         width="357.12"
         x="57.599998"
         y="41.299198"
         id="rect331"
         style="stroke-linecap:butt;stroke-linejoin:round" />
    </clipPath>
  </defs>
  <g
     id="g5687"
     transform="matrix(0.64741047,0,0,0.64715362,-35.915769,-25.352001)"
     style="stroke-width:1.54492164;stroke-linecap:butt;stroke-linejoin:round">
    <g
       style="stroke:#00c3ff;stroke-width:2.09907103;stroke-linecap:butt;stroke-linejoin:round;stroke-opacity:1"
       id="line2d_11">
      <path
         inkscape:connector-curvature="0"
         id="path188"
         style="fill:none;stroke:#00c3ff;stroke-width:2.31738234;stroke-linecap:square;stroke-linejoin:round;stroke-opacity:1"
         d="m 73.832727,266.8114 13.012207,1.14601 15.614646,1.13802 18.21709,1.09706 22.12075,1.09778 26.02441,1.06098 31.2293,1.04391 37.7354,1.02976 45.54272,1.01006 54.65126,0.98172 60.50676,0.88497 v 0"
         clip-path="url(#p60b905f27a)" />
    </g>
    <g
       style="stroke-width:1.54492164;stroke-linecap:butt;stroke-linejoin:round"
       id="line2d_12">
      <path
         inkscape:connector-curvature="0"
         id="path191"
         style="fill:none;stroke:#ff7f0e;stroke-width:2.31738234;stroke-linecap:square;stroke-linejoin:round"
         d="m 73.832727,53.3448 0.650611,137.07241 0.65061,9.80928 0.65061,5.77347 0.650611,4.11673 0.65061,3.20658 1.30122,4.85955 1.301221,3.64989 1.301221,2.92685 1.30122,2.44454 1.951831,3.04738 1.951831,2.52806 1.951831,2.15933 1.951831,1.88355 2.602441,2.18579 2.602442,1.90008 3.253051,2.06909 3.253051,1.80595 3.90366,1.89857 4.55427,1.92747 4.55428,1.68615 5.20488,1.69521 5.85549,1.6734 6.5061,1.63004 7.15672,1.57251 8.45793,1.62342 9.10855,1.5238 10.40976,1.51746 11.71099,1.48273 13.66281,1.49539 14.96404,1.4123 17.56648,1.42523 19.51831,1.35614 22.77136,1.35037 26.02441,1.31029 29.92808,1.27443 34.48234,1.23662 39.68723,1.19382 0.65061,0.0179 v 0"
         clip-path="url(#p60b905f27a)" />
    </g>
    <g
       style="stroke:#14ff00;stroke-width:2.09907103;stroke-linecap:butt;stroke-linejoin:round;stroke-opacity:1"
       id="line2d_13">
      <path
         inkscape:connector-curvature="0"
         id="path194"
         style="fill:none;stroke:#14ff00;stroke-width:2.31738234;stroke-linecap:square;stroke-linejoin:round;stroke-opacity:1"
         d="m 73.832727,266.81138 9.759155,-2.72325 11.060375,-2.85475 12.361593,-2.95647 13.66282,-3.03541 14.96404,-3.09704 16.91586,-3.26711 18.21709,-3.29035 20.16892,-3.41517 22.12075,-3.5172 24.07258,-3.60104 26.67503,-3.75946 28.62685,-3.80735 31.2293,-3.92686 33.83173,-4.02758 36.43418,-4.11285 4.55427,-0.49944 v 0"
         clip-path="url(#p60b905f27a)" />
    </g>
    <g
       style="stroke:#ff00e5;stroke-width:2.09907103;stroke-linecap:butt;stroke-linejoin:round;stroke-opacity:1"
       id="line2d_14">
      <path
         inkscape:connector-curvature="0"
         id="path197"
         style="fill:none;stroke:#ff00e5;stroke-width:2.31738234;stroke-linecap:square;stroke-linejoin:round;stroke-opacity:1"
         d="m 73.832727,109.22144 0.650611,136.25828 0.65061,9.17301 0.65061,5.20569 0.650611,3.59394 0.65061,2.71755 1.30122,3.95824 1.301221,2.82713 1.301221,2.16513 1.30122,1.73272 1.301221,1.42953 1.951831,1.74261 1.951831,1.39994 1.951831,1.1552 2.602441,1.26415 2.602441,1.03273 3.253052,1.05524 3.903661,1.01661 4.55427,0.94194 5.20488,0.8502 6.50611,0.82748 7.80732,0.75796 9.75916,0.70876 12.36159,0.65323 15.61465,0.58328 20.16892,0.51598 26.67502,0.44945 37.08479,0.39039 54.00066,0.33036 83.92873,0.27051 13.0122,0.0281 v 0"
         clip-path="url(#p60b905f27a)" />
    </g>
    <path
       d="M 398.43775,46.30625 V 41.2992 m -72.10099,5.00705 V 41.2992 m -72.13684,5.00705 V 41.2992 m -72.20855,5.00705 V 41.2992 m -72.06514,5.00705 V 41.2992 m 299.78674,253.50025 h 5.00704 m -5.00704,-56.01229 h 5.00704 m -5.00704,-55.81588 h 5.00704 m -5.00704,-55.87605 h 5.00704 m -5.00704,-55.888728 h 5.00704 M 398.43775,306.3024 v -5.00705 m -72.10099,5.00705 v -5.00705 m -72.13684,5.00705 v -5.00705 m -72.20855,5.00705 v -5.00705 m -72.06514,5.00705 v -5.00705 M 57.6,294.79945 h 5.007042 M 57.6,238.78716 h 5.007042 M 57.6,182.97128 h 5.007042 M 57.6,127.09523 h 5.007042 M 57.6,71.206502 h 5.007042 M 57.6,41.2992 H 414.72 M 57.6,306.3024 h 357.12 m 0,0 V 41.2992 M 57.6,306.3024 V 41.2992"
       style="fill:none;stroke:#ffffff;stroke-width:1.15869117px;stroke-linecap:butt;stroke-linejoin:miter;stroke-opacity:1"
       id="path5603"
       inkscape:connector-curvature="0" />
  </g>
</svg>
